<svg width="122" height="125" viewBox="0 0 122 125" fill="none" xmlns="http://www.w3.org/2000/svg">
<path d="M117.525 69.0678C117.525 69.0678 119.256 54.9458 116.109 48.5611C112.963 42.1765 103.25 28.0761 83.1065 25.5331C72.4227 24.1912 65.1888 25.7062 58.5923 26.5395C54.4139 27.0697 46.6337 24.3211 32.6618 27.719C22.3017 30.2404 6.57945 39.9905 1.47023 61.0058C-1.22097 72.0762 -0.199121 84.0339 4.384 94.1087C13.186 113.436 29.5254 118.143 29.5254 118.143L62.3661 121L102.127 103.015L117.525 69.0678Z" fill="#FF2A23"/>
<path d="M79.07 122.937C100.121 118.605 118.32 98.785 121.489 77.7965C124.454 58.1594 113.551 45 113.551 45C113.551 45 114.794 55.4782 112.471 66.6427C109.975 78.5902 102.75 98.5062 79.8647 109.789C51.7723 123.634 21 114.508 21 114.508C21 114.508 41.9088 130.584 79.07 122.937Z" fill="#DC0D27"/>
<path d="M21.053 50.2931C15.7137 48.7325 9.05188 53.2933 8.08907 66.6459C7.20407 78.8775 13.0685 93.6148 18.8161 91.8564C23.6983 90.3618 19.0009 80.1413 20.7418 71.7561C22.502 63.3709 29.1931 52.6779 21.053 50.2931Z" fill="#FED3B0"/>
<path d="M28.166 43.8821C27.3692 44.9495 29.2181 49.6416 38.6057 49.5782C47.983 49.5148 49.5561 46.5875 53.734 47.8979C57.9119 49.2083 61.1705 54.4077 65.7876 57.2505C72.2435 61.224 81.5595 60.2095 81.4982 58.4447C81.4369 56.6693 79.159 57.5781 77.1977 55.0946C75.2365 52.6006 71.7634 46.0168 71.7634 46.0168C71.7634 46.0168 72.7338 42.931 74.787 43.0472C79.5267 43.3114 84.7977 42.3392 87.6987 40.4581C91.1718 38.2177 92.4793 34.762 91.846 33.9694C91.2126 33.1874 89.2412 35.301 88.1686 35.1002C87.096 34.8994 80.1192 35.0368 80.1192 35.0368L71.6919 33.6207C71.6919 33.6207 72.8462 28.5164 75.1241 25.8955C77.402 23.2747 80.9773 19.6711 80.9058 19.2166C80.8343 18.7622 77.9639 19.1638 77.9639 19.1638L69.0871 23.3593L62.8764 31.8136L51.0883 33.3882L39.7395 25.5151C39.7395 25.5151 33.2326 20.0832 32.9364 20.21C31.2918 20.9075 33.7944 23.4966 35.6842 26.6247C37.3186 29.3407 37.6557 30.7039 39.8621 32.5956C42.0175 34.4344 45.6336 36.2627 45.6336 36.2627L43.039 41.1133C43.039 41.1133 34.6729 44.5267 33.2122 44.5267C31.7617 44.5373 28.6053 43.3009 28.166 43.8821Z" fill="#BDCF44"/>
<path d="M54.3496 41.1629C57.7838 41.434 60.2646 46.2592 63.3605 49.5447C67.8813 54.3266 71.418 56.8205 75.2212 57.7639C77.128 58.2301 81.5053 59 81.5053 59C81.5053 59 82.1409 58.5337 79.9778 57.2542C77.8148 55.9747 76.5129 53.5242 76.1951 52.3856C75.8773 51.2471 74.8829 47.5062 72.7917 44.405C70.7004 41.3039 68.3221 39.9918 69.0807 38.5822C69.8393 37.1726 76.4001 39.5581 82.7149 38.4846C91.0493 37.075 92.3204 34.2449 91.9411 33.9088C91.5618 33.5726 86.4054 35.1883 83.8016 34.5811C81.1978 33.9738 78.963 32.0871 75.0265 32.0871C72.3406 32.0871 69.7163 33.1172 69.0089 31.5666C68.4144 30.2655 70.6492 25.9173 72.3509 24.28C76.4821 20.3114 80.9415 19.368 80.9415 18.8259C80.9415 17.709 73.6938 17.0801 68.6707 21.3198C63.668 25.5378 64.6111 31.0787 58.1118 31.0787C55.9488 31.0787 55.1184 30.5365 55.1184 30.5365C55.1184 30.5365 52.2173 28.0101 48.3423 25.7872C44.4673 23.5644 41.5457 24.5511 39.3109 23.4125C37.0864 22.274 33.1396 19.3247 32.7603 19.921C32.381 20.5174 35.7229 24.5511 39.926 27.8474C44.129 31.1438 48.8344 32.8245 47.4914 34.169C46.1588 35.5136 43.9342 36.3919 41.8327 38.0726C39.7312 39.7533 37.886 42.1713 35.3436 43.0496C32.8013 43.9279 28.6188 43.3099 28.0447 44.0472C27.4706 44.7845 32.4733 47.3327 40.295 45.793C48.0963 44.2532 48.1168 40.675 54.3496 41.1629Z" fill="#94A61D"/>
<path d="M61.7684 0.00370534C60.0992 -0.0811138 57.9903 1.3184 57.9903 1.3184C57.9903 1.3184 54.9319 5.2731 53.7225 15.0909C53.1628 19.6287 53.7725 25.7251 53.6526 29.0861C53.5326 32.4364 52.843 33.6875 53.0329 35.4051C53.2228 37.1121 54.9119 39.0417 58.8199 38.9993C61.9583 38.9675 63.5775 36.3911 63.5175 35.4687C63.4575 34.5463 60.7689 25.142 61.5285 16.8509C62.2381 9.14297 64.8868 3.82057 64.9967 2.70732C65.0567 2.10298 64.3071 0.130934 61.7684 0.00370534Z" fill="#728035"/>
</svg>
